<svg width="600" height="300" viewBox="0 0 600 300" xmlns="http://www.w3.org/2000/svg">
  <!-- Background -->
  <rect width="600" height="300" fill="#0f172a" rx="15"/>
  <path d="M 0 50 L 600 50 M 0 250 L 600 250" stroke="#1e293b" stroke-width="2"/>
  
  <!-- Title -->
  <text x="300" y="35" font-family="Arial" font-size="18" font-weight="bold" fill="#facc15" text-anchor="middle">HOISTING: LIFTING THE ENERGY PINS</text>

  <!-- Execution Top Line -->
  <line x1="50" y1="80" x2="550" y2="80" stroke="#475569" stroke-width="2" stroke-dasharray="5,5"/>
  <text x="50" y="75" font-family="Arial" font-size="10" fill="#64748b">TOP OF CIRCUIT</text>

  <!-- Function Hoisting (Full) -->
  <g transform="translate(100, 150)">
    <rect x="-40" y="-10" width="80" height="60" fill="#1e293b" stroke="#34d399" stroke-width="2" rx="5"/>
    <path d="M 0 0 L 0 -70" stroke="#34d399" stroke-width="3" marker-end="url(#arrow)"/>
    <text x="0" y="70" font-family="Arial" font-size="12" fill="#34d399" text-anchor="middle">function()</text>
    <text x="0" y="25" font-family="Arial" font-size="10" fill="#94a3b8" text-anchor="middle">FULL ACCESS</text>
  </g>

  <!-- Var Hoisting (Partial) -->
  <g transform="translate(300, 150)">
    <rect x="-40" y="-10" width="80" height="60" fill="#1e293b" stroke="#facc15" stroke-width="2" rx="5"/>
    <path d="M 0 0 L 0 -70" stroke="#facc15" stroke-width="3" marker-end="url(#arrow)"/>
    <text x="0" y="70" font-family="Arial" font-size="12" fill="#facc15" text-anchor="middle">var</text>
    <text x="0" y="25" font-family="Arial" font-size="10" fill="#94a3b8" text-anchor="middle">undefined</text>
  </g>

  <!-- Let/Const Hoisting (TDZ) -->
  <g transform="translate(500, 150)">
    <rect x="-40" y="-10" width="80" height="60" fill="#1e293b" stroke="#ef4444" stroke-width="2" rx="5"/>
    <rect x="-20" y="-95" width="40" height="40" fill="#ef4444" opacity="0.2"/>
    <text x="0" y="-75" font-family="Arial" font-size="14" fill="#ef4444" text-anchor="middle" font-weight="bold">!</text>
    <text x="0" y="70" font-family="Arial" font-size="12" fill="#ef4444" text-anchor="middle">let / const</text>
    <text x="0" y="25" font-family="Arial" font-size="10" fill="#94a3b8" text-anchor="middle">TDZ Blocked</text>
  </g>

  <!-- Labels -->
  <text x="300" y="280" font-family="Arial" font-size="12" fill="#94a3b8" text-anchor="middle">Sistem memindai dan memindahkan deklarasi ke puncak sirkuit sebelum eksekusi.</text>

  <defs>
    <marker id="arrow" markerWidth="10" markerHeight="10" refX="5" refY="5" orient="auto">
      <path d="M 0 0 L 10 5 L 0 10 Z" fill="#34d399" />
    </marker>
  </defs>
</svg>
