<svg xmlns="http://www.w3.org/2000/svg" width="1200" height="620" viewBox="0 0 1200 620">
  <rect width="1200" height="620" fill="#f8fafc"/>
  <text x="60" y="60" font-family="Segoe UI, Arial, sans-serif" font-size="28" font-weight="700" fill="#0f172a">C07 Coercion ke Number Map</text>

  <rect x="60" y="110" width="240" height="80" rx="10" fill="#dbeafe" stroke="#60a5fa" stroke-width="2"/>
  <text x="130" y="158" font-family="Segoe UI, Arial, sans-serif" font-size="20" fill="#1e3a8a">Raw Input</text>

  <rect x="350" y="110" width="240" height="80" rx="10" fill="#dcfce7" stroke="#4ade80" stroke-width="2"/>
  <text x="420" y="158" font-family="Segoe UI, Arial, sans-serif" font-size="20" fill="#166534">Number(...)</text>

  <rect x="640" y="110" width="240" height="80" rx="10" fill="#fee2e2" stroke="#f87171" stroke-width="2"/>
  <text x="710" y="158" font-family="Segoe UI, Arial, sans-serif" font-size="20" fill="#991b1b">Validate</text>

  <rect x="930" y="110" width="210" height="80" rx="10" fill="#fef3c7" stroke="#fbbf24" stroke-width="2"/>
  <text x="970" y="158" font-family="Segoe UI, Arial, sans-serif" font-size="18" fill="#92400e">Math Safe</text>

  <line x1="300" y1="150" x2="350" y2="150" stroke="#334155" stroke-width="3"/>
  <polygon points="350,150 338,143 338,157" fill="#334155"/>
  <line x1="590" y1="150" x2="640" y2="150" stroke="#334155" stroke-width="3"/>
  <polygon points="640,150 628,143 628,157" fill="#334155"/>
  <line x1="880" y1="150" x2="930" y2="150" stroke="#334155" stroke-width="3"/>
  <polygon points="930,150 918,143 918,157" fill="#334155"/>

  <rect x="60" y="250" width="500" height="320" rx="10" fill="#ffffff" stroke="#cbd5e1"/>
  <text x="90" y="300" font-family="Segoe UI, Arial, sans-serif" font-size="22" fill="#0f172a">Contoh Fokus</text>
  <text x="90" y="350" font-family="Consolas, monospace" font-size="22" fill="#1e293b">Number.isNaN(result)</text>
  <text x="90" y="400" font-family="Segoe UI, Arial, sans-serif" font-size="18" fill="#475569">Gunakan snippet ini sebagai titik awal eksperimen.</text>

  <rect x="610" y="250" width="530" height="320" rx="10" fill="#ffffff" stroke="#cbd5e1"/>
  <text x="640" y="300" font-family="Segoe UI, Arial, sans-serif" font-size="22" fill="#0f172a">Poin Inti</text>
  <text x="640" y="350" font-family="Segoe UI, Arial, sans-serif" font-size="19" fill="#334155">1. Number, parseInt, parseFloat punya tujuan berbeda.</text>
  <text x="640" y="395" font-family="Segoe UI, Arial, sans-serif" font-size="19" fill="#334155">2. Operator -, *, / memaksa coercion number.</text>
  <text x="640" y="440" font-family="Segoe UI, Arial, sans-serif" font-size="19" fill="#334155">3. Validasi hasil parsing sebelum hitung lanjut.</text>
</svg>
